<svg width="64" height="64" viewBox="0 0 64 64" fill="none" xmlns="http://www.w3.org/2000/svg">
<circle cx="23" cy="41" r="19" stroke="white" stroke-width="2"/>
<path d="M49 18C50.6569 18 52 16.6569 52 15C52 13.3431 50.6569 12 49 12C47.3431 12 46 13.3431 46 15C46 16.6569 47.3431 18 49 18Z" stroke="white" stroke-width="2" stroke-linecap="round" stroke-linejoin="round"/>
<path d="M56.4 18C56.2669 18.3016 56.2272 18.6362 56.286 18.9606C56.3448 19.285 56.4995 19.5843 56.73 19.82L56.79 19.88C56.976 20.0657 57.1235 20.2863 57.2241 20.5291C57.3248 20.7719 57.3766 21.0322 57.3766 21.295C57.3766 21.5578 57.3248 21.8181 57.2241 22.0609C57.1235 22.3037 56.976 22.5243 56.79 22.71C56.6043 22.896 56.3837 23.0435 56.1409 23.1441C55.8981 23.2448 55.6378 23.2966 55.375 23.2966C55.1122 23.2966 54.8519 23.2448 54.6091 23.1441C54.3663 23.0435 54.1457 22.896 53.96 22.71L53.9 22.65C53.6643 22.4195 53.365 22.2648 53.0406 22.206C52.7162 22.1472 52.3816 22.1869 52.08 22.32C51.7842 22.4468 51.532 22.6572 51.3543 22.9255C51.1766 23.1938 51.0813 23.5082 51.08 23.83V24C51.08 24.5304 50.8693 25.0391 50.4942 25.4142C50.1191 25.7893 49.6104 26 49.08 26C48.5496 26 48.0409 25.7893 47.6658 25.4142C47.2907 25.0391 47.08 24.5304 47.08 24V23.91C47.0723 23.579 46.9651 23.258 46.7725 22.9887C46.5799 22.7194 46.3107 22.5143 46 22.4C45.6984 22.2669 45.3638 22.2272 45.0394 22.286C44.715 22.3448 44.4157 22.4995 44.18 22.73L44.12 22.79C43.9343 22.976 43.7137 23.1235 43.4709 23.2241C43.2281 23.3248 42.9678 23.3766 42.705 23.3766C42.4422 23.3766 42.1819 23.3248 41.9391 23.2241C41.6963 23.1235 41.4757 22.976 41.29 22.79C41.104 22.6043 40.9565 22.3837 40.8559 22.1409C40.7552 21.8981 40.7034 21.6378 40.7034 21.375C40.7034 21.1122 40.7552 20.8519 40.8559 20.6091C40.9565 20.3663 41.104 20.1457 41.29 19.96L41.35 19.9C41.5805 19.6643 41.7352 19.365 41.794 19.0406C41.8528 18.7162 41.8131 18.3816 41.68 18.08C41.5532 17.7842 41.3428 17.532 41.0745 17.3543C40.8062 17.1766 40.4918 17.0813 40.17 17.08H40C39.4696 17.08 38.9609 16.8693 38.5858 16.4942C38.2107 16.1191 38 15.6104 38 15.08C38 14.5496 38.2107 14.0409 38.5858 13.6658C38.9609 13.2907 39.4696 13.08 40 13.08H40.09C40.421 13.0723 40.742 12.9651 41.0113 12.7725C41.2806 12.5799 41.4857 12.3107 41.6 12C41.7331 11.6984 41.7728 11.3638 41.714 11.0394C41.6552 10.715 41.5005 10.4157 41.27 10.18L41.21 10.12C41.024 9.93425 40.8765 9.71368 40.7759 9.47088C40.6752 9.22808 40.6234 8.96783 40.6234 8.705C40.6234 8.44217 40.6752 8.18192 40.7759 7.93912C40.8765 7.69632 41.024 7.47575 41.21 7.29C41.3957 7.10405 41.6163 6.95653 41.8591 6.85588C42.1019 6.75523 42.3622 6.70343 42.625 6.70343C42.8878 6.70343 43.1481 6.75523 43.3909 6.85588C43.6337 6.95653 43.8543 7.10405 44.04 7.29L44.1 7.35C44.3357 7.58054 44.635 7.73519 44.9594 7.794C45.2838 7.85282 45.6184 7.81312 45.92 7.68H46C46.2958 7.55324 46.548 7.34276 46.7257 7.07447C46.9034 6.80618 46.9987 6.49179 47 6.17V6C47 5.46957 47.2107 4.96086 47.5858 4.58579C47.9609 4.21071 48.4696 4 49 4C49.5304 4 50.0391 4.21071 50.4142 4.58579C50.7893 4.96086 51 5.46957 51 6V6.09C51.0013 6.41179 51.0966 6.72618 51.2743 6.99447C51.452 7.26276 51.7042 7.47324 52 7.6C52.3016 7.73312 52.6362 7.77282 52.9606 7.714C53.285 7.65519 53.5843 7.50054 53.82 7.27L53.88 7.21C54.0657 7.02405 54.2863 6.87653 54.5291 6.77588C54.7719 6.67523 55.0322 6.62343 55.295 6.62343C55.5578 6.62343 55.8181 6.67523 56.0609 6.77588C56.3037 6.87653 56.5243 7.02405 56.71 7.21C56.896 7.39575 57.0435 7.61632 57.1441 7.85912C57.2448 8.10192 57.2966 8.36217 57.2966 8.625C57.2966 8.88783 57.2448 9.14808 57.1441 9.39088C57.0435 9.63368 56.896 9.85425 56.71 10.04L56.65 10.1C56.4195 10.3357 56.2648 10.635 56.206 10.9594C56.1472 11.2838 56.1869 11.6184 56.32 11.92V12C56.4468 12.2958 56.6572 12.548 56.9255 12.7257C57.1938 12.9034 57.5082 12.9987 57.83 13H58C58.5304 13 59.0391 13.2107 59.4142 13.5858C59.7893 13.9609 60 14.4696 60 15C60 15.5304 59.7893 16.0391 59.4142 16.4142C59.0391 16.7893 58.5304 17 58 17H57.91C57.5882 17.0013 57.2738 17.0966 57.0055 17.2743C56.7372 17.452 56.5268 17.7042 56.4 18Z" stroke="white" stroke-width="2" stroke-linecap="round" stroke-linejoin="round"/>
</svg>
