<svg width="64" height="64" viewBox="0 0 64 64" fill="none" xmlns="http://www.w3.org/2000/svg">
<path d="M2.66669 56V52H61.3334V56H2.66669ZM5.33335 48V8H58.6667V48H5.33335ZM9.33335 44H54.6667V12H9.33335V44Z" fill="white"/>
<path d="M24.3008 30.8398C22.5547 32.5977 24.1133 35.1406 20.7852 38.5156C22.3337 39.0902 23.9969 39.287 25.6367 39.0898C27.4672 38.9954 29.2234 38.3363 30.6641 37.2031C31.222 36.6463 31.624 35.9528 31.8296 35.1918C32.0353 34.4309 32.0375 33.6292 31.8359 32.8672C31.6386 32.0967 31.2332 31.3954 30.6641 30.8398C30.1053 30.2749 29.4052 29.8702 28.6367 29.668C27.8747 29.4664 27.073 29.4686 26.3121 29.6743C25.5511 29.8799 24.8576 30.2819 24.3008 30.8398Z" stroke="white" stroke-width="2" stroke-miterlimit="10"/>
<path d="M28.9855 29.7969L40.9972 17.7969L43.798 20.6094L31.7628 32.6445" stroke="white" stroke-width="2" stroke-miterlimit="10"/>
</svg>
