<svg width="64" height="64" viewBox="0 0 64 64" fill="none" xmlns="http://www.w3.org/2000/svg">
<path d="M32.0001 61.7143C48.411 61.7143 61.7143 48.411 61.7143 32C61.7143 15.5893 48.411 2.28572 32.0001 2.28572C15.5893 2.28572 2.28577 15.5893 2.28577 32C2.28577 48.411 15.5893 61.7143 32.0001 61.7143Z" stroke="white" stroke-width="2" stroke-linecap="round" stroke-linejoin="round"/>
<path d="M4.57153 43.4283H12.5715C14.6933 43.4283 16.7281 42.5855 18.2284 41.0852C19.7287 39.5849 20.5715 37.55 20.5715 35.4283V28.5712C20.5715 26.4495 21.4144 24.4146 22.9147 22.9143C24.415 21.414 26.4498 20.5712 28.5715 20.5712C30.6933 20.5712 32.7281 19.7283 34.2284 18.228C35.7287 16.7277 36.5715 14.6929 36.5715 12.5712V2.60547" stroke="white" stroke-width="2" stroke-linecap="round" stroke-linejoin="round"/>
<path d="M61.7144 31.5429C59.4255 30.3553 56.8874 29.7285 54.3087 29.7143H44.5715C42.4498 29.7143 40.415 30.5571 38.9147 32.0574C37.4144 33.5577 36.5715 35.5926 36.5715 37.7143C36.5715 39.836 37.4144 41.8709 38.9147 43.3712C40.415 44.8715 42.4498 45.7143 44.5715 45.7143C46.087 45.7143 47.5407 46.3164 48.6122 47.3879C49.6838 48.4594 50.2858 49.9132 50.2858 51.4286V55.4057" stroke="white" stroke-width="2" stroke-linecap="round" stroke-linejoin="round"/>
</svg>
