<svg width="64" height="64" viewBox="0 0 64 64" fill="none" xmlns="http://www.w3.org/2000/svg">
<path d="M54.4 7.35973H9.60001C5.88867 7.35973 2.88 10.3684 2.88 14.0797V49.9197C2.88 53.6312 5.88867 56.6397 9.60001 56.6397H54.4C58.1113 56.6397 61.12 53.6312 61.12 49.9197V14.0797C61.12 10.3684 58.1113 7.35973 54.4 7.35973Z" stroke="white" stroke-width="2" stroke-linejoin="round"/>
<path d="M43.1995 25.2815C45.6739 25.2815 47.6799 23.2755 47.6799 20.8009C47.6799 18.3265 45.6739 16.3205 43.1995 16.3205C40.7249 16.3205 38.7189 18.3265 38.7189 20.8009C38.7189 23.2755 40.7249 25.2815 43.1995 25.2815Z" stroke="white" stroke-width="2" stroke-miterlimit="10"/>
<path d="M38.72 43.1715L26.0276 30.5028C25.22 29.6952 24.1343 29.2267 22.9928 29.1929C21.8513 29.1592 20.7399 29.5625 19.8857 30.3208L2.88 45.4408" stroke="white" stroke-width="2" stroke-linecap="round" stroke-linejoin="round"/>
<path d="M27.5196 56.6403L44.7873 39.3727C45.5769 38.5813 46.6339 38.114 47.7507 38.0621C48.8673 38.0103 49.9631 38.3779 50.8227 39.0927L61.1197 47.6803" stroke="white" stroke-width="2" stroke-linecap="round" stroke-linejoin="round"/>
</svg>
