<svg width="48" height="48" viewBox="0 0 48 48" fill="none" xmlns="http://www.w3.org/2000/svg">
<path d="M8.47269 13.3494C8.47646 3.44254 19.2034 -2.74517 27.7811 2.21154C31.759 4.51022 34.2098 8.75514 34.2115 13.3494C34.2103 14.3743 33.1001 15.0135 32.2132 14.5C31.8025 14.2623 31.5495 13.8239 31.5489 13.3494C31.5489 5.49225 23.0433 0.581494 16.2387 4.51009C13.0807 6.33336 11.1353 9.7029 11.1353 13.3494C11.1341 14.3743 10.0239 15.0135 9.13699 14.5C8.72632 14.2623 8.47325 13.8239 8.47269 13.3494ZM39.0931 23.5562C37.9383 23.5551 36.8101 23.9023 35.8557 24.5525C35.003 20.6256 30.4971 18.7516 27.1112 20.9158V13.3494C27.1112 8.90841 22.3036 6.13277 18.4576 8.35329C16.6726 9.38383 15.5731 11.2883 15.5731 13.3494V32.6536L13.9023 29.9688C11.6706 26.1256 6.11552 26.1394 3.90302 29.9936C2.87619 31.7823 2.88165 33.983 3.91736 35.7667L10.4231 46.861C10.9617 47.7329 12.2422 47.6948 12.728 46.7924C12.9415 46.3959 12.94 45.9182 12.724 45.523L6.22498 34.4287C5.02931 32.3576 6.524 29.7689 8.91542 29.7689C10.0253 29.769 11.0508 30.3611 11.6057 31.3223C11.6119 31.3355 11.6193 31.3482 11.6279 31.36L15.7728 38.0166C16.3126 38.8877 17.5931 38.8477 18.0775 37.9446C18.1817 37.7505 18.236 37.5335 18.2357 37.3132V13.3494C18.2376 10.9581 20.8274 9.46554 22.8974 10.6628C23.8566 11.2176 24.4477 12.2413 24.4485 13.3494V28.4377C24.4498 29.4626 25.5599 30.1018 26.4469 29.5883C26.8575 29.3506 27.1106 28.9122 27.1112 28.4377V25.7751C27.113 23.3838 29.7029 21.8912 31.7729 23.0885C32.7321 23.6433 33.3231 24.667 33.324 25.7751V30.2128C33.3252 31.2377 34.4354 31.8769 35.3224 31.3634C35.733 31.1257 35.9861 30.6873 35.9866 30.2128V29.3253C35.9885 26.934 38.5783 25.4414 40.6484 26.6387C41.6076 27.1935 42.1986 28.2172 42.1995 29.3253V37.3132C42.1995 42.2236 40.5797 45.563 40.5642 45.594C40.243 46.2493 40.5092 47.041 41.161 47.3691C41.3443 47.4664 41.5483 47.5181 41.7557 47.52C42.2612 47.521 42.7237 47.2356 42.9495 46.7833C43.0271 46.628 44.8643 42.8892 44.8643 37.3132V29.3253C44.8643 26.1383 42.2801 23.555 39.0931 23.5562Z" fill="white"/>
</svg>
